<?xml version="1.0" encoding="UTF-8" standalone="no"?>
<!DOCTYPE svg PUBLIC "-//W3C//DTD SVG 1.1//EN" "http://www.w3.org/Graphics/SVG/1.1/DTD/svg11.dtd">
<svg width="100%" height="100%" viewBox="0 0 1667 1667" version="1.1" xmlns="http://www.w3.org/2000/svg" xmlns:xlink="http://www.w3.org/1999/xlink" xml:space="preserve" xmlns:serif="http://www.serif.com/" style="fill-rule:evenodd;clip-rule:evenodd;stroke-linejoin:round;stroke-miterlimit:2;">
    <g transform="matrix(4.16667,0,0,4.16667,-3469.97,-7139.11)">
        <g id="view" transform="matrix(1,0,0,1,832.793,1713.39)">
            <rect x="0" y="0" width="400" height="400" style="fill-opacity:0;"/>
            <g id="surface4">
                <g transform="matrix(1.05317,0,0,1.05317,-80.1421,-19.0585)">
                    <path d="M86,202.527L86,213.473L86.004,213.797L86.004,216.148L86.008,216.418L86.008,217.707L86.012,218.199L86.012,218.68L86.016,219.148L86.016,219.609L86.02,220.059L86.02,220.504L86.023,220.938L86.023,221.363L86.027,221.785L86.031,222.609L86.035,222.813L86.035,223.012L86.039,223.41L86.043,224.191L86.047,224.383L86.047,224.574L86.051,224.953L86.059,225.695L86.059,225.895L86.063,226.094L86.066,226.488L86.074,227.262L86.074,227.453L86.078,227.641L86.082,228.02L86.094,228.766L86.094,228.949L86.098,229.133L86.102,229.496L86.113,230.215L86.137,231.617L86.137,231.789L86.148,232.305L86.16,232.98L86.188,234.309L86.191,234.469L86.195,234.633L86.203,234.957L86.215,235.602L86.246,236.863L86.25,237.012L86.262,237.445L86.277,238.02L86.313,239.152L86.32,239.434L86.328,239.711L86.348,240.266L86.383,241.359L86.387,241.492L86.391,241.629L86.402,241.898L86.422,242.434L86.461,243.492L86.547,245.563L86.551,245.688L86.559,245.813L86.57,246.059L86.59,246.555L86.637,247.535L86.734,249.461L86.75,249.695L86.762,249.934L86.789,250.406L86.84,251.34L86.953,253.176L86.961,253.301L86.969,253.422L86.984,253.668L87.016,254.156L87.082,255.125L87.223,257.035L87.238,257.27L87.258,257.504L87.293,257.973L87.367,258.902L87.523,260.738L87.539,260.949L87.598,261.582L87.672,262.418L87.832,264.07L88.172,267.301L88.184,267.406L88.195,267.516L88.219,267.73L88.27,268.156L88.367,269.008L88.57,270.691L89.004,273.984L89.02,274.082L89.031,274.184L89.063,274.383L89.117,274.777L89.23,275.566L89.465,277.125L89.957,280.184L90.961,285.691L92.176,291.398L93.434,296.5L94.777,301.309L96.363,306.324L97.965,310.828L99.828,315.531L101.789,319.973L103.734,323.965L105.973,328.141L108.188,331.891L110.715,335.805L113.336,339.5L115.898,342.813L118.813,346.266L121.66,349.359L124.57,352.273L127.859,355.301L131.063,358L134.672,360.793L138.363,363.398L141.938,365.707L145.961,368.082L149.863,370.18L153.828,372.117L158.289,374.098L162.605,375.824L167.469,377.566L172.191,379.07L176.996,380.434L182.426,381.781L187.715,382.922L187.809,382.941L187.898,382.957L188.082,382.996L188.449,383.066L189.188,383.211L190.68,383.492L193.715,384.027L193.809,384.043L193.906,384.059L194.094,384.09L194.473,384.152L195.234,384.277L196.773,384.52L199.914,384.98L200.008,384.992L200.102,385.008L200.289,385.031L200.66,385.082L201.41,385.184L202.926,385.379L203.02,385.391L203.117,385.406L203.691,385.477L204.461,385.57L206.02,385.75L206.125,385.766L206.23,385.777L206.445,385.801L206.871,385.848L207.734,385.941L209.477,386.121L209.695,386.145L209.918,386.168L210.359,386.211L211.25,386.297L213.055,386.461L213.16,386.469L213.27,386.48L213.48,386.496L213.91,386.535L214.77,386.605L216.516,386.746L216.629,386.754L216.738,386.762L216.961,386.777L217.402,386.813L218.297,386.875L220.113,387L220.566,387.031L221.02,387.059L221.934,387.113L223.789,387.223L223.906,387.23L224.027,387.234L224.262,387.25L224.734,387.273L225.691,387.324L227.641,387.418L227.773,387.422L227.91,387.43L228.719,387.465L229.816,387.512L229.953,387.516L230.09,387.523L230.367,387.535L230.926,387.555L232.059,387.598L232.199,387.602L232.344,387.605L232.633,387.617L233.207,387.637L234.379,387.676L236.793,387.742L236.934,387.746L237.367,387.758L237.953,387.773L239.137,387.801L239.285,387.805L239.438,387.809L239.738,387.813L240.348,387.828L241.59,387.852L241.75,387.852L241.906,387.855L242.223,387.863L242.863,387.871L243.027,387.875L243.188,387.879L243.516,387.883L244.176,387.895L244.344,387.895L244.508,387.898L245.527,387.91L246.926,387.93L247.125,387.93L247.324,387.934L247.727,387.938L248.551,387.945L248.758,387.945L248.969,387.949L249.391,387.953L250.254,387.961L250.473,387.961L250.695,387.965L251.141,387.965L251.367,387.969L251.594,387.969L252.055,387.973L252.289,387.973L252.523,387.977L253,387.977L253.984,387.98L254.234,387.984L255.008,387.984L255.27,387.988L256.078,387.988L256.355,387.992L257.512,387.992L257.813,387.996L260.102,387.996L260.465,388L271.535,388L271.898,387.996L274.188,387.996L274.488,387.992L275.645,387.992L275.922,387.988L276.73,387.988L276.992,387.984L277.766,387.984L278.016,387.98L279,387.977L279.477,387.977L279.711,387.973L279.945,387.973L280.406,387.969L280.633,387.969L280.859,387.965L281.305,387.965L281.527,387.961L281.746,387.961L282.609,387.953L283.031,387.949L283.242,387.945L283.449,387.945L284.273,387.938L284.676,387.934L284.875,387.93L285.074,387.93L286.473,387.91L287.492,387.898L287.656,387.895L287.824,387.895L288.484,387.883L288.813,387.879L288.973,387.875L289.137,387.871L289.777,387.863L290.094,387.855L290.25,387.852L290.41,387.852L291.652,387.828L292.262,387.813L292.563,387.809L292.715,387.805L292.863,387.801L294.047,387.773L294.633,387.758L295.066,387.746L295.207,387.742L297.621,387.676L298.793,387.637L299.367,387.617L299.656,387.605L299.801,387.602L299.941,387.598L301.074,387.555L301.633,387.535L301.91,387.523L302.047,387.516L302.184,387.512L303.281,387.465L304.09,387.43L304.227,387.422L304.359,387.418L306.309,387.324L307.266,387.273L307.738,387.25L307.973,387.234L308.094,387.23L308.211,387.223L310.066,387.113L310.98,387.059L311.434,387.031L311.887,387L313.703,386.875L314.598,386.813L315.039,386.777L315.262,386.762L315.371,386.754L315.484,386.746L317.23,386.605L318.09,386.535L318.52,386.496L318.73,386.48L318.84,386.469L318.945,386.461L320.75,386.297L321.641,386.211L322.082,386.168L322.305,386.145L322.523,386.121L324.266,385.941L325.129,385.848L325.555,385.801L325.77,385.777L325.875,385.766L325.98,385.75L327.539,385.57L328.309,385.477L328.883,385.406L328.98,385.391L329.074,385.379L330.59,385.184L331.34,385.082L331.711,385.031L331.898,385.008L331.992,384.992L332.086,384.98L335.227,384.52L336.766,384.277L337.527,384.152L337.906,384.09L338.094,384.059L338.191,384.043L338.285,384.027L341.32,383.492L342.813,383.211L343.551,383.066L343.918,382.996L344.102,382.957L344.191,382.941L344.285,382.922L349.574,381.781L355.004,380.434L359.809,379.07L364.531,377.566L369.395,375.824L373.711,374.098L378.172,372.117L382.137,370.18L386.039,368.082L390.063,365.707L393.637,363.398L397.328,360.793L400.938,358L404.141,355.301L407.43,352.273L410.34,349.359L413.188,346.266L416.102,342.813L418.664,339.5L421.285,335.805L423.813,331.891L426.027,328.141L428.266,323.965L430.211,319.973L432.172,315.531L434.035,310.828L435.637,306.324L437.223,301.309L438.566,296.5L439.824,291.398L441.039,285.691L442.043,280.184L442.535,277.125L442.77,275.566L442.883,274.777L442.938,274.383L442.969,274.184L442.98,274.082L442.996,273.984L443.43,270.691L443.633,269.008L443.73,268.156L443.781,267.73L443.805,267.516L443.816,267.406L443.828,267.301L444.168,264.07L444.328,262.418L444.402,261.582L444.461,260.949L444.477,260.738L444.633,258.902L444.707,257.973L444.742,257.504L444.762,257.27L444.777,257.035L444.918,255.125L444.984,254.156L445.016,253.668L445.031,253.422L445.039,253.301L445.047,253.176L445.16,251.34L445.211,250.406L445.238,249.934L445.25,249.695L445.266,249.461L445.363,247.535L445.41,246.555L445.43,246.059L445.441,245.813L445.449,245.688L445.453,245.563L445.539,243.492L445.578,242.434L445.598,241.898L445.609,241.629L445.613,241.492L445.617,241.359L445.652,240.266L445.672,239.711L445.68,239.434L445.688,239.152L445.723,238.02L445.738,237.445L445.75,237.012L445.754,236.863L445.785,235.602L445.797,234.957L445.805,234.633L445.809,234.469L445.813,234.309L445.84,232.98L445.852,232.305L445.863,231.789L445.863,231.617L445.887,230.215L445.898,229.496L445.902,229.133L445.906,228.949L445.906,228.766L445.918,228.02L445.922,227.641L445.926,227.453L445.926,227.262L445.934,226.488L445.938,226.094L445.941,225.895L445.941,225.695L445.949,224.953L445.953,224.574L445.953,224.383L445.957,224.191L445.961,223.41L445.965,223.012L445.965,222.813L445.969,222.609L445.973,221.785L445.977,221.363L445.977,220.938L445.98,220.504L445.98,220.059L445.984,219.609L445.984,219.148L445.988,218.68L445.988,218.199L445.992,217.707L445.992,216.418L445.996,216.148L445.996,213.797L446,213.473L446,202.527L445.996,202.203L445.996,199.852L445.992,199.582L445.992,198.293L445.988,197.801L445.988,197.32L445.984,196.852L445.984,196.391L445.98,195.941L445.98,195.496L445.977,195.063L445.977,194.637L445.973,194.215L445.969,193.391L445.965,193.188L445.965,192.988L445.961,192.59L445.957,191.809L445.953,191.617L445.953,191.426L445.949,191.047L445.941,190.305L445.941,190.105L445.938,189.906L445.934,189.512L445.926,188.738L445.926,188.547L445.922,188.359L445.918,187.98L445.906,187.234L445.906,187.051L445.902,186.867L445.898,186.504L445.887,185.785L445.863,184.383L445.863,184.211L445.852,183.695L445.84,183.02L445.813,181.691L445.809,181.531L445.805,181.367L445.797,181.043L445.785,180.398L445.754,179.137L445.75,178.988L445.738,178.555L445.723,177.98L445.688,176.848L445.68,176.566L445.672,176.289L445.652,175.734L445.617,174.641L445.613,174.508L445.609,174.371L445.598,174.102L445.578,173.566L445.539,172.508L445.453,170.438L445.449,170.313L445.441,170.188L445.43,169.941L445.41,169.445L445.363,168.465L445.266,166.539L445.25,166.305L445.238,166.066L445.211,165.594L445.16,164.66L445.047,162.824L445.039,162.699L445.031,162.578L445.016,162.332L444.984,161.844L444.918,160.875L444.777,158.965L444.762,158.73L444.742,158.496L444.707,158.027L444.633,157.098L444.477,155.262L444.461,155.051L444.402,154.418L444.328,153.582L444.168,151.93L443.828,148.699L443.816,148.594L443.805,148.484L443.781,148.27L443.73,147.844L443.633,146.992L443.43,145.309L442.996,142.016L442.98,141.918L442.969,141.816L442.938,141.617L442.883,141.223L442.77,140.434L442.535,138.875L442.043,135.816L441.039,130.309L439.824,124.602L438.566,119.5L437.223,114.691L435.637,109.676L434.035,105.172L432.172,100.469L430.211,96.027L428.266,92.035L426.027,87.859L423.813,84.109L421.285,80.195L418.664,76.5L416.102,73.188L413.188,69.734L410.34,66.641L407.43,63.727L404.141,60.699L400.938,58L397.328,55.207L393.637,52.602L390.063,50.293L386.039,47.918L382.137,45.82L378.172,43.883L373.711,41.902L369.395,40.176L364.531,38.434L359.809,36.93L355.004,35.566L349.574,34.219L344.285,33.078L344.191,33.059L344.102,33.043L343.918,33.004L343.551,32.934L342.813,32.789L341.32,32.508L338.285,31.973L338.191,31.957L338.094,31.941L337.906,31.91L337.527,31.848L336.766,31.723L335.227,31.48L332.086,31.02L331.992,31.008L331.898,30.992L331.711,30.969L331.34,30.918L330.59,30.816L329.074,30.621L328.98,30.609L328.883,30.594L328.309,30.523L327.539,30.43L325.98,30.25L325.875,30.234L325.77,30.223L325.555,30.199L325.129,30.152L324.266,30.059L322.523,29.879L322.305,29.855L322.082,29.832L321.641,29.789L320.75,29.703L318.945,29.539L318.84,29.531L318.73,29.52L318.52,29.504L318.09,29.465L317.23,29.395L315.484,29.254L315.371,29.246L315.262,29.238L315.039,29.223L314.598,29.188L313.703,29.125L311.887,29L311.434,28.969L310.98,28.941L310.066,28.887L308.211,28.777L308.094,28.77L307.973,28.766L307.738,28.75L307.266,28.727L306.309,28.676L304.359,28.582L304.227,28.578L304.09,28.57L303.281,28.535L302.184,28.488L302.047,28.484L301.91,28.477L301.633,28.465L301.074,28.445L299.941,28.402L299.801,28.398L299.656,28.395L299.367,28.383L298.793,28.363L297.621,28.324L295.207,28.258L295.066,28.254L294.633,28.242L294.047,28.227L292.863,28.199L292.715,28.195L292.563,28.191L292.262,28.188L291.652,28.172L290.41,28.148L290.25,28.148L290.094,28.145L289.777,28.137L289.137,28.129L288.973,28.125L288.813,28.121L288.484,28.117L287.824,28.105L287.656,28.105L287.492,28.102L286.473,28.09L285.074,28.07L284.875,28.07L284.676,28.066L284.273,28.063L283.449,28.055L283.242,28.055L283.031,28.051L282.609,28.047L281.746,28.039L281.527,28.039L281.305,28.035L280.859,28.035L280.633,28.031L280.406,28.031L279.945,28.027L279.711,28.027L279.477,28.023L279,28.023L278.016,28.02L277.766,28.016L276.992,28.016L276.73,28.012L275.922,28.012L275.645,28.008L274.488,28.008L274.188,28.004L271.898,28.004L271.535,28L260.465,28L260.102,28.004L257.813,28.004L257.512,28.008L256.355,28.008L256.078,28.012L255.27,28.012L255.008,28.016L254.234,28.016L253.984,28.02L253,28.023L252.523,28.023L252.289,28.027L252.055,28.027L251.594,28.031L251.367,28.031L251.141,28.035L250.695,28.035L250.473,28.039L250.254,28.039L249.391,28.047L248.969,28.051L248.758,28.055L248.551,28.055L247.727,28.063L247.324,28.066L247.125,28.07L246.926,28.07L245.527,28.09L244.508,28.102L244.344,28.105L244.176,28.105L243.516,28.117L243.188,28.121L243.027,28.125L242.863,28.129L242.223,28.137L241.906,28.145L241.75,28.148L241.59,28.148L240.348,28.172L239.738,28.188L239.438,28.191L239.285,28.195L239.137,28.199L237.953,28.227L237.367,28.242L236.934,28.254L236.793,28.258L234.379,28.324L233.207,28.363L232.633,28.383L232.344,28.395L232.199,28.398L232.059,28.402L230.926,28.445L230.367,28.465L230.09,28.477L229.953,28.484L229.816,28.488L228.719,28.535L227.91,28.57L227.773,28.578L227.641,28.582L225.691,28.676L224.734,28.727L224.262,28.75L224.027,28.766L223.906,28.77L223.789,28.777L221.934,28.887L221.02,28.941L220.566,28.969L220.113,29L218.297,29.125L217.402,29.188L216.961,29.223L216.738,29.238L216.629,29.246L216.516,29.254L214.77,29.395L213.91,29.465L213.48,29.504L213.27,29.52L213.16,29.531L213.055,29.539L211.25,29.703L210.359,29.789L209.918,29.832L209.695,29.855L209.477,29.879L207.734,30.059L206.871,30.152L206.445,30.199L206.23,30.223L206.125,30.234L206.02,30.25L204.461,30.43L203.691,30.523L203.117,30.594L203.02,30.609L202.926,30.621L201.41,30.816L200.66,30.918L200.289,30.969L200.102,30.992L200.008,31.008L199.914,31.02L196.773,31.48L195.234,31.723L194.473,31.848L194.094,31.91L193.906,31.941L193.809,31.957L193.715,31.973L190.68,32.508L189.188,32.789L188.449,32.934L188.082,33.004L187.898,33.043L187.809,33.059L187.715,33.078L182.426,34.219L176.996,35.566L172.191,36.93L167.469,38.434L162.605,40.176L158.289,41.902L153.828,43.883L149.863,45.82L145.961,47.918L141.938,50.293L138.363,52.602L134.672,55.207L131.063,58L127.859,60.699L124.57,63.727L121.66,66.641L118.813,69.734L115.898,73.188L113.336,76.5L110.715,80.195L108.188,84.109L105.973,87.859L103.734,92.035L101.789,96.027L99.828,100.469L97.965,105.172L96.363,109.676L94.777,114.691L93.434,119.5L92.176,124.602L90.961,130.309L89.957,135.816L89.465,138.875L89.23,140.434L89.117,141.223L89.063,141.617L89.031,141.816L89.02,141.918L89.004,142.016L88.57,145.309L88.367,146.992L88.27,147.844L88.219,148.27L88.195,148.484L88.184,148.594L88.172,148.699L87.832,151.93L87.672,153.582L87.598,154.418L87.539,155.051L87.523,155.262L87.367,157.098L87.293,158.027L87.258,158.496L87.238,158.73L87.223,158.965L87.082,160.875L87.016,161.844L86.984,162.332L86.969,162.578L86.961,162.699L86.953,162.824L86.84,164.66L86.789,165.594L86.762,166.066L86.75,166.305L86.734,166.539L86.637,168.465L86.59,169.445L86.57,169.941L86.559,170.188L86.551,170.313L86.547,170.438L86.461,172.508L86.422,173.566L86.402,174.102L86.391,174.371L86.387,174.508L86.383,174.641L86.348,175.734L86.328,176.289L86.32,176.566L86.313,176.848L86.277,177.98L86.262,178.555L86.25,178.988L86.246,179.137L86.215,180.398L86.203,181.043L86.195,181.367L86.191,181.531L86.188,181.691L86.16,183.02L86.148,183.695L86.137,184.211L86.137,184.383L86.113,185.785L86.102,186.504L86.098,186.867L86.094,187.051L86.094,187.234L86.082,187.98L86.078,188.359L86.074,188.547L86.074,188.738L86.066,189.512L86.063,189.906L86.059,190.105L86.059,190.305L86.051,191.047L86.047,191.426L86.047,191.617L86.043,191.809L86.039,192.59L86.035,192.988L86.035,193.188L86.031,193.391L86.027,194.215L86.023,194.637L86.023,195.063L86.02,195.496L86.02,195.941L86.016,196.391L86.016,196.852L86.012,197.32L86.012,197.801L86.008,198.293L86.008,199.582L86.004,199.852L86.004,202.203L86,202.527Z" style="fill:rgb(97,157,177);fill-rule:nonzero;"/>
                </g>
                <g transform="matrix(11.9871,0,0,11.9871,-1386.23,-1458.32)">
                    <text x="119.009px" y="142.403px" style="font-family:'STYuanti-SC-Bold', 'Yuanti SC';font-size:12px;fill:white;">VIEW</text>
                </g>
            </g>
        </g>
    </g>
</svg>
