<svg t="1672816247189" class="icon" viewBox="0 0 1024 1024" version="1.1" xmlns="http://www.w3.org/2000/svg" p-id="22647" width="512" height="512"><path d="M582.4 915.2h-138.666667c-19.2 0-36.266667-4.266667-51.2-14.933333L245.333333 810.666667c-29.866667-17.066667-49.066667-51.2-49.066666-85.333334V475.733333c0-10.666667 2.133333-19.2 4.266666-29.866666 4.266667-17.066667 12.8-34.133333 25.6-49.066667l87.466667-110.933333c4.266667-4.266667 6.4-10.666667 6.4-17.066667v-51.2h390.4v51.2c0 6.4 2.133333 12.8 6.4 17.066667l87.466667 110.933333c10.666667 14.933333 21.333333 29.866667 25.6 49.066667 2.133333 8.533333 4.266667 19.2 4.266666 29.866666V725.333333c0 34.133333-19.2 68.266667-49.066666 85.333334l-147.2 89.6c-19.2 8.533333-38.4 14.933333-55.466667 14.933333z" fill="#FD7D70" p-id="22648"></path><path d="M667.733333 230.4H349.866667c-34.133333 0-61.866667-27.733333-61.866667-61.866667 0-34.133333 27.733333-61.866667 61.866667-61.866666h317.866666c34.133333 0 61.866667 27.733333 61.866667 61.866666 0 36.266667-27.733333 61.866667-61.866667 61.866667z" fill="#FFDCB4" p-id="22649"></path><path d="M512 563.2m-170.666667 0a170.666667 170.666667 0 1 0 341.333334 0 170.666667 170.666667 0 1 0-341.333334 0Z" fill="#FFDCB4" p-id="22650"></path></svg>
